<svg width="256" height="256" viewBox="0 0 256 256" xmlns="http://www.w3.org/2000/svg">
    <defs>
        <linearGradient id="noteBody" x1="24" y1="62" x2="232" y2="194" gradientUnits="userSpaceOnUse">
            <stop offset="0" stop-color="#F8E8BD" />
            <stop offset="0.46" stop-color="#E7C46E" />
            <stop offset="1" stop-color="#A9792F" />
        </linearGradient>
        <linearGradient id="innerPaper" x1="36" y1="76" x2="220" y2="180" gradientUnits="userSpaceOnUse">
            <stop offset="0" stop-color="#FFF7DC" />
            <stop offset="1" stop-color="#E9D093" />
        </linearGradient>
        <filter id="softShadow" x="-20%" y="-20%" width="140%" height="140%">
            <feDropShadow dx="0" dy="10" stdDeviation="10" flood-color="#3A2A12" flood-opacity="0.20" />
        </filter>
        <pattern id="microLines" width="10" height="10" patternUnits="userSpaceOnUse">
            <path d="M 0 8 C 3 2, 7 2, 10 8" fill="none" stroke="#7F5C22" stroke-width="0.8" opacity="0.30" />
        </pattern>
    </defs>

    <rect x="22" y="62" width="212" height="132" rx="22" fill="url(#noteBody)" filter="url(#softShadow)" />
    <rect x="36" y="76" width="184" height="104" rx="17" fill="url(#innerPaper)" />
    <rect x="42" y="82" width="172" height="92" rx="13" fill="url(#microLines)" />

    <rect x="61" y="76" width="12" height="104" rx="6" fill="#2B74B9" opacity="0.58" />
    <rect x="76" y="76" width="5" height="104" rx="2.5" fill="#2E8B57" opacity="0.60" />
    <rect x="22" y="62" width="212" height="132" rx="22" fill="none" stroke="#5C4218" stroke-width="4" opacity="0.62" />
    <rect x="36" y="76" width="184" height="104" rx="17" fill="none" stroke="#7B5A22" stroke-width="2.5" opacity="0.48" />

    <path d="M 92 156 H 202" stroke="#FFF6D7" stroke-width="4" stroke-linecap="round" opacity="0.68" />
    <path d="M 98 139 H 143" stroke="#7A5C25" stroke-width="3" stroke-linecap="round" opacity="0.42" />
    <path d="M 156 139 H 199" stroke="#7A5C25" stroke-width="3" stroke-linecap="round" opacity="0.42" />
    <path d="M 97 96 H 200" stroke="#7A5C25" stroke-width="3" stroke-linecap="round" opacity="0.26" />

    <circle cx="141" cy="118" r="34" fill="#F4D37A" opacity="0.56" />
    <circle cx="141" cy="118" r="25" fill="none" stroke="#7A5C25" stroke-width="3" opacity="0.30" />
    <path d="M 109 118 C 122 102, 139 100, 154 112 C 166 122, 176 119, 184 106" fill="none" stroke="#2E8B57" stroke-width="4" stroke-linecap="round" opacity="0.44" />
    <path d="M 108 130 C 124 119, 140 118, 156 130 C 166 138, 176 137, 187 128" fill="none" stroke="#2B74B9" stroke-width="3" stroke-linecap="round" opacity="0.34" />

    <text x="96" y="123" font-family="Georgia, serif" font-size="32" font-weight="700" fill="#17394F" letter-spacing="1">5000</text>
    <text x="99" y="148" font-family="Georgia, serif" font-size="17" font-weight="700" fill="#5C4218" opacity="0.80">RWF</text>
    <text x="172" y="148" font-family="Georgia, serif" font-size="14" font-weight="700" fill="#5C4218" opacity="0.72">CASH</text>

    <text x="42" y="101" font-family="Georgia, serif" font-size="15" font-weight="700" fill="#17394F" opacity="0.72">RWF</text>
    <text x="178" y="104" font-family="monospace" font-size="11" font-weight="700" fill="#5C4218" opacity="0.55">KZ 250</text>

    <circle cx="55" cy="156" r="13" fill="#F7D86A" stroke="#FFF4B8" stroke-width="3" />
    <path d="M 55 136 V 143 M 55 169 V 176 M 35 156 H 42 M 68 156 H 75 M 41 142 L 46 147 M 64 165 L 69 170 M 41 170 L 46 165 M 64 147 L 69 142" stroke="#FFF4B8" stroke-width="3" stroke-linecap="round" />

    <path d="M 193 112 H 178 L 169 124 178 136 H 193 M 183 124 L 193 136 M 193 112 L 185 122" fill="none" stroke="#5C4218" stroke-width="4" stroke-linecap="round" stroke-linejoin="round" opacity="0.32" />
    <path d="M 48 92 C 56 88, 64 88, 72 92 M 184 164 C 192 160, 200 160, 208 164" fill="none" stroke="#5C4218" stroke-width="2.5" stroke-linecap="round" opacity="0.35" />
</svg>
