<svg width="360" height="220" viewBox="0 0 360 220" fill="none" xmlns="http://www.w3.org/2000/svg">
  <rect width="360" height="220" rx="32" fill="url(#photo_bg)"/>
  <path d="M0 160C70 128 116 166 176 132C240 96 306 94 360 112V220H0V160Z" fill="#FFFFFF" fill-opacity="0.18"/>
  <circle cx="292" cy="50" r="70" fill="#FFFFFF" fill-opacity="0.16"/>
  <rect x="86" y="72" width="154" height="96" rx="22" fill="#F8FBF6" fill-opacity="0.78"/>
  <circle cx="160" cy="120" r="30" stroke="#2F4858" stroke-width="10"/>
  <circle cx="160" cy="120" r="10" fill="#2F4858" fill-opacity="0.72"/>
  <path d="M240 100L300 78V162L240 140V100Z" fill="#2F4858" fill-opacity="0.72"/>
  <path d="M118 72L132 48H194L210 72" stroke="#2F4858" stroke-width="8" stroke-linecap="round"/>
  <path d="M96 184H264" stroke="#2F4858" stroke-width="8" stroke-linecap="round"/>
  <g opacity="0.20" transform="translate(216 -10) rotate(-10 70 50) scale(1.18)">
    <path d="M70 28H42L25 50L42 72H70M50.788 49.279L69.663 71.394M69.212 29.038L55.524 44.251L50.827 49.171" stroke="#F8FBF6" stroke-width="6" stroke-linejoin="round" stroke-linecap="round" fill="none"/>
    <g transform="translate(50 52)">
      <path d="M70 28H42L25 50L42 72H70M58 50H80" stroke="#F8FBF6" stroke-width="9" stroke-linejoin="round" stroke-linecap="round" fill="none"/>
      <circle cx="80" cy="50" r="4.5" fill="#F8FBF6"/>
    </g>
  </g>
  <defs>
    <linearGradient id="photo_bg" x1="0" y1="0" x2="360" y2="220" gradientUnits="userSpaceOnUse">
      <stop stop-color="#DCE9F3"/>
      <stop offset="0.52" stop-color="#88A6B7"/>
      <stop offset="1" stop-color="#304C5C"/>
    </linearGradient>
  </defs>
</svg>
