<svg width="360" height="220" viewBox="0 0 360 220" fill="none" xmlns="http://www.w3.org/2000/svg">
  <rect width="360" height="220" rx="32" fill="url(#apartments_bg)"/>
  <circle cx="300" cy="50" r="76" fill="#FFFFFF" fill-opacity="0.16"/>
  <path d="M0 164C70 132 132 158 196 124C250 96 308 96 360 114V220H0V164Z" fill="#FFF8EA" fill-opacity="0.24"/>
  <rect x="82" y="54" width="82" height="130" rx="14" fill="#FFF8EA" fill-opacity="0.78"/>
  <rect x="176" y="82" width="96" height="102" rx="14" fill="#F4CFA6" fill-opacity="0.78"/>
  <path d="M102 82H122M102 112H122M102 142H122M194 110H214M194 140H214M238 110H252M238 140H252" stroke="#7C573D" stroke-width="7" stroke-linecap="round"/>
  <path d="M121 184V160C121 151 128 144 137 144C146 144 153 151 153 160V184" stroke="#7C573D" stroke-width="8" stroke-linecap="round"/>
  <path d="M58 184C72 157 98 157 112 184" stroke="#5F7A57" stroke-width="7" stroke-linecap="round"/>
  <path d="M260 184C276 150 310 150 326 184" stroke="#5F7A57" stroke-width="7" stroke-linecap="round"/>
  <g opacity="0.20" transform="translate(216 -10) rotate(-10 70 50) scale(1.18)">
    <path d="M70 28H42L25 50L42 72H70M50.788 49.279L69.663 71.394M69.212 29.038L55.524 44.251L50.827 49.171" stroke="#FFF8EA" stroke-width="6" stroke-linejoin="round" stroke-linecap="round" fill="none"/>
    <g transform="translate(50 52)">
      <path d="M70 28H42L25 50L42 72H70M58 50H80" stroke="#FFF8EA" stroke-width="9" stroke-linejoin="round" stroke-linecap="round" fill="none"/>
      <circle cx="80" cy="50" r="4.5" fill="#FFF8EA"/>
    </g>
  </g>
  <defs>
    <linearGradient id="apartments_bg" x1="0" y1="0" x2="360" y2="220" gradientUnits="userSpaceOnUse">
      <stop stop-color="#F4E0C3"/>
      <stop offset="0.52" stop-color="#D0A36E"/>
      <stop offset="1" stop-color="#80633F"/>
    </linearGradient>
  </defs>
</svg>
