<svg width="1290" height="2796" viewBox="0 0 1290 2796" fill="none" xmlns="http://www.w3.org/2000/svg">
    <rect width="1290" height="2796" fill="#FFF9EE"/>
    <rect x="72" y="168" width="1146" height="620" rx="92" fill="#FFF4DB" fill-opacity="0.58"/>
    <rect x="82" y="178" width="1126" height="600" rx="86" stroke="#E4D8B5" stroke-width="4" stroke-opacity="0.78"/>
    <rect x="98" y="1914" width="1094" height="458" rx="88" fill="#F9EDD2" fill-opacity="0.62"/>
    <rect x="108" y="1924" width="1074" height="438" rx="82" stroke="#E4D8B5" stroke-width="4" stroke-opacity="0.65"/>
    <path d="M132 305H502" stroke="#D4C075" stroke-width="13" stroke-linecap="round" opacity="0.62"/>
    <path d="M170 375H1018" stroke="#D4C075" stroke-width="7" stroke-linecap="round" opacity="0.42"/>
    <path d="M790 234H945L1015 306H1164V455H1019L945 529H758" stroke="#D4C075" stroke-width="8" stroke-linecap="round" stroke-linejoin="round" opacity="0.35"/>
    <path d="M174 2226H880" stroke="#D4C075" stroke-width="10" stroke-linecap="round" opacity="0.38"/>
    <path d="M146 2320H732" stroke="#D4C075" stroke-width="14" stroke-linecap="round" opacity="0.34"/>
    <path d="M150 2542H330L412 2476H610V2576H425L338 2645H163" stroke="#D4C075" stroke-width="8" stroke-linecap="round" stroke-linejoin="round" opacity="0.30"/>
    <circle cx="1122" cy="682" r="230" stroke="#D4C075" stroke-width="10" opacity="0.25"/>
    <circle cx="166" cy="2200" r="286" stroke="#D4C075" stroke-width="10" opacity="0.22"/>
    <path d="M170 505H502" stroke="#C9A959" stroke-width="7" stroke-linecap="round" opacity="0.22"/>
    <path d="M170 552H620" stroke="#C9A959" stroke-width="7" stroke-linecap="round" opacity="0.18"/>
    <path d="M170 599H738" stroke="#C9A959" stroke-width="7" stroke-linecap="round" opacity="0.15"/>
</svg>
