<svg width="360" height="220" viewBox="0 0 360 220" fill="none" xmlns="http://www.w3.org/2000/svg">
  <rect width="360" height="220" rx="32" fill="url(#layouts_bg)"/>
  <circle cx="88" cy="54" r="44" fill="#FFFFFF" fill-opacity="0.20"/>
  <circle cx="288" cy="54" r="66" fill="#FFF1D2" fill-opacity="0.22"/>
  <path d="M0 166C68 140 130 166 184 130C238 96 300 98 360 118V220H0V166Z" fill="#FFFFFF" fill-opacity="0.20"/>
  <circle cx="180" cy="106" r="38" stroke="#6A5948" stroke-width="8"/>
  <circle cx="126" cy="86" r="16" fill="#6A5948" fill-opacity="0.76"/>
  <circle cx="234" cy="86" r="16" fill="#6A5948" fill-opacity="0.76"/>
  <circle cx="126" cy="144" r="16" fill="#6A5948" fill-opacity="0.76"/>
  <circle cx="234" cy="144" r="16" fill="#6A5948" fill-opacity="0.76"/>
  <path d="M80 180H280" stroke="#6A5948" stroke-width="8" stroke-linecap="round"/>
  <g opacity="0.20" transform="translate(216 -10) rotate(-10 70 50) scale(1.18)">
    <path d="M70 28H42L25 50L42 72H70M50.788 49.279L69.663 71.394M69.212 29.038L55.524 44.251L50.827 49.171" stroke="#FFF1D2" stroke-width="6" stroke-linejoin="round" stroke-linecap="round" fill="none"/>
    <g transform="translate(50 52)">
      <path d="M70 28H42L25 50L42 72H70M58 50H80" stroke="#FFF1D2" stroke-width="9" stroke-linejoin="round" stroke-linecap="round" fill="none"/>
      <circle cx="80" cy="50" r="4.5" fill="#FFF1D2"/>
    </g>
  </g>
  <defs>
    <linearGradient id="layouts_bg" x1="0" y1="0" x2="360" y2="220" gradientUnits="userSpaceOnUse">
      <stop stop-color="#F4E6D2"/>
      <stop offset="0.55" stop-color="#C6A77B"/>
      <stop offset="1" stop-color="#6B5944"/>
    </linearGradient>
  </defs>
</svg>
