<svg width="360" height="220" viewBox="0 0 360 220" fill="none" xmlns="http://www.w3.org/2000/svg">
  <rect width="360" height="220" rx="32" fill="url(#transport_bg)"/>
  <path d="M0 162C66 128 120 160 178 128C244 92 304 96 360 116V220H0V162Z" fill="#FFFFFF" fill-opacity="0.20"/>
  <circle cx="292" cy="50" r="70" fill="#FFFFFF" fill-opacity="0.15"/>
  <path d="M86 132L114 82H244L274 132V158H86V132Z" fill="#FFF7EC" fill-opacity="0.78"/>
  <path d="M124 94H168M188 94H232" stroke="#74533E" stroke-width="8" stroke-linecap="round"/>
  <circle cx="128" cy="160" r="18" fill="#74533E"/>
  <circle cx="232" cy="160" r="18" fill="#74533E"/>
  <path d="M62 188H298" stroke="#74533E" stroke-width="8" stroke-linecap="round"/>
  <path d="M96 132H264" stroke="#74533E" stroke-width="7" stroke-linecap="round"/>
  <g opacity="0.20" transform="translate(216 -10) rotate(-10 70 50) scale(1.18)">
    <path d="M70 28H42L25 50L42 72H70M50.788 49.279L69.663 71.394M69.212 29.038L55.524 44.251L50.827 49.171" stroke="#FFF7EC" stroke-width="6" stroke-linejoin="round" stroke-linecap="round" fill="none"/>
    <g transform="translate(50 52)">
      <path d="M70 28H42L25 50L42 72H70M58 50H80" stroke="#FFF7EC" stroke-width="9" stroke-linejoin="round" stroke-linecap="round" fill="none"/>
      <circle cx="80" cy="50" r="4.5" fill="#FFF7EC"/>
    </g>
  </g>
  <defs>
    <linearGradient id="transport_bg" x1="0" y1="0" x2="360" y2="220" gradientUnits="userSpaceOnUse">
      <stop stop-color="#F3E1C7"/>
      <stop offset="0.52" stop-color="#C49B6F"/>
      <stop offset="1" stop-color="#735641"/>
    </linearGradient>
  </defs>
</svg>
