<svg width="360" height="220" viewBox="0 0 360 220" fill="none" xmlns="http://www.w3.org/2000/svg">
  <rect width="360" height="220" rx="32" fill="url(#access_bg)"/>
  <path d="M0 160C72 130 120 162 182 126C242 92 306 96 360 116V220H0V160Z" fill="#FFFFFF" fill-opacity="0.20"/>
  <circle cx="292" cy="52" r="70" fill="#FFFFFF" fill-opacity="0.16"/>
  <rect x="108" y="54" width="144" height="132" rx="22" fill="#FFF8EA" fill-opacity="0.78"/>
  <path d="M138 90H222" stroke="#315E62" stroke-width="8" stroke-linecap="round"/>
  <path d="M144 126H164M196 126H216M144 154H164M196 154H216" stroke="#315E62" stroke-width="10" stroke-linecap="round"/>
  <path d="M112 186H248" stroke="#315E62" stroke-width="8" stroke-linecap="round"/>
  <path d="M274 82L292 100L324 66" stroke="#8FBF70" stroke-width="10" stroke-linecap="round" stroke-linejoin="round"/>
  <g opacity="0.20" transform="translate(216 -10) rotate(-10 70 50) scale(1.18)">
    <path d="M70 28H42L25 50L42 72H70M50.788 49.279L69.663 71.394M69.212 29.038L55.524 44.251L50.827 49.171" stroke="#FFF8EA" stroke-width="6" stroke-linejoin="round" stroke-linecap="round" fill="none"/>
    <g transform="translate(50 52)">
      <path d="M70 28H42L25 50L42 72H70M58 50H80" stroke="#FFF8EA" stroke-width="9" stroke-linejoin="round" stroke-linecap="round" fill="none"/>
      <circle cx="80" cy="50" r="4.5" fill="#FFF8EA"/>
    </g>
  </g>
  <defs>
    <linearGradient id="access_bg" x1="0" y1="0" x2="360" y2="220" gradientUnits="userSpaceOnUse">
      <stop stop-color="#E0F1EA"/>
      <stop offset="0.52" stop-color="#A4CDC0"/>
      <stop offset="1" stop-color="#426E73"/>
    </linearGradient>
  </defs>
</svg>
